{
	"asset":{
		"generator":"Khronos glTF Blender I/O v3.6.28",
		"version":"2.0"
	},
	"scene":0,
	"scenes":[
		{
			"name":"Scene",
			"nodes":[
				0
			]
		}
	],
	"nodes":[
		{
			"mesh":0,
			"name":"Circle"
		}
	],
	"materials":[
		{
			"doubleSided":true,
			"name":"Material",
			"pbrMetallicRoughness":{
				"baseColorFactor":[
					0.011087078601121902,
					0.011087078601121902,
					0.011087078601121902,
					1
				],
				"metallicFactor":0,
				"roughnessFactor":0.4000000059604645
			}
		}
	],
	"meshes":[
		{
			"name":"Circle",
			"primitives":[
				{
					"attributes":{
						"POSITION":0,
						"NORMAL":1,
						"TEXCOORD_0":2
					},
					"indices":3,
					"material":0
				}
			]
		}
	],
	"accessors":[
		{
			"bufferView":0,
			"componentType":5126,
			"count":1910,
			"max":[
				0.29999983310699463,
				0.30012279748916626,
				0.6709707379341125
			],
			"min":[
				-0.30000022053718567,
				-0.2998772859573364,
				-0.3290294408798218
			],
			"type":"VEC3"
		},
		{
			"bufferView":1,
			"componentType":5126,
			"count":1910,
			"type":"VEC3"
		},
		{
			"bufferView":2,
			"componentType":5126,
			"count":1910,
			"type":"VEC2"
		},
		{
			"bufferView":3,
			"componentType":5123,
			"count":6084,
			"type":"SCALAR"
		}
	],
	"bufferViews":[
		{
			"buffer":0,
			"byteLength":22920,
			"byteOffset":0,
			"target":34962
		},
		{
			"buffer":0,
			"byteLength":22920,
			"byteOffset":22920,
			"target":34962
		},
		{
			"buffer":0,
			"byteLength":15280,
			"byteOffset":45840,
			"target":34962
		},
		{
			"buffer":0,
			"byteLength":12168,
			"byteOffset":61120,
			"target":34963
		}
	],
	"buffers":[
		{
			"byteLength":73288,
			"uri":"data:application/octet-stream;base64,"
		}
	]
}
